<svg width="12" height="12" viewBox="0 0 12 12" fill="none" xmlns="http://www.w3.org/2000/svg">
<mask id="path-1-inside-1_0_1017" fill="white">
<path d="M11.3447 8.72652C11.9652 7.51016 12.1523 6.11853 11.875 4.78149C11.5976 3.44445 10.8726 2.242 9.81949 1.37275C8.76641 0.503503 7.44834 0.0194589 6.08297 0.000573855C4.71761 -0.0183112 3.38665 0.429092 2.30994 1.26888C1.23322 2.10867 0.475164 3.29061 0.160981 4.61947C-0.153202 5.94832 -0.00471588 7.34459 0.581913 8.57765C1.16854 9.81071 2.15822 10.8068 3.38747 11.4014C4.61672 11.9959 6.01201 12.1534 7.34286 11.8478L7.13564 10.9454C6.01016 11.2038 4.83018 11.0707 3.79062 10.5678C2.75106 10.065 1.9141 9.22266 1.418 8.17988C0.921895 7.1371 0.796322 5.95629 1.06202 4.8325C1.32772 3.70871 1.9688 2.70916 2.87936 1.99896C3.78993 1.28876 4.9155 0.910397 6.07017 0.926368C7.22484 0.942339 8.33952 1.35169 9.23009 2.0868C10.1207 2.82191 10.7338 3.83881 10.9684 4.96952C11.2029 6.10023 11.0447 7.27712 10.5199 8.30578L11.3447 8.72652Z"/>
</mask>
<path d="M11.3447 8.72652C11.9652 7.51016 12.1523 6.11853 11.875 4.78149C11.5976 3.44445 10.8726 2.242 9.81949 1.37275C8.76641 0.503503 7.44834 0.0194589 6.08297 0.000573855C4.71761 -0.0183112 3.38665 0.429092 2.30994 1.26888C1.23322 2.10867 0.475164 3.29061 0.160981 4.61947C-0.153202 5.94832 -0.00471588 7.34459 0.581913 8.57765C1.16854 9.81071 2.15822 10.8068 3.38747 11.4014C4.61672 11.9959 6.01201 12.1534 7.34286 11.8478L7.13564 10.9454C6.01016 11.2038 4.83018 11.0707 3.79062 10.5678C2.75106 10.065 1.9141 9.22266 1.418 8.17988C0.921895 7.1371 0.796322 5.95629 1.06202 4.8325C1.32772 3.70871 1.9688 2.70916 2.87936 1.99896C3.78993 1.28876 4.9155 0.910397 6.07017 0.926368C7.22484 0.942339 8.33952 1.35169 9.23009 2.0868C10.1207 2.82191 10.7338 3.83881 10.9684 4.96952C11.2029 6.10023 11.0447 7.27712 10.5199 8.30578L11.3447 8.72652Z" stroke="#1E293B" stroke-width="2" mask="url(#path-1-inside-1_0_1017)"/>
</svg>
